<?xml version="1.0" encoding="utf-8"?>
<!-- Generator: Adobe Illustrator 19.0.0, SVG Export Plug-In . SVG Version: 6.00 Build 0)  -->
<svg version="1.1" id="Layer_1" xmlns="http://www.w3.org/2000/svg" xmlns:xlink="http://www.w3.org/1999/xlink" x="0px" y="0px"
	 viewBox="-245 373 120 48" style="enable-background:new -245 373 120 48;" xml:space="preserve">
<style type="text/css">
	.st0{fill:#FFFFFF;}
	.st1{fill:#0059A8;}
</style>
<g>
	<polygon class="st0" points="-243,382.6 -243,397 -236,397 -236,390 -230,390 -230,397 -223,397 -223,382.6 -233,373.7 	"/>
</g>
<rect x="-168" y="393" class="st0" width="14" height="2"/>
<rect x="-168" y="417" class="st1" width="14" height="2"/>
<path class="st0" d="M-173,375v16h24v-16H-173z M-164,388v-10l6.7,5L-164,388z"/>
<g>
	<path class="st0" d="M-199,381h-6c-1.1,0-2,0.9-2,2v12c0,1.1,0.9,2,2,2h6c1.1,0,2-0.9,2-2v-12C-197,381.9-197.9,381-199,381z
		 M-199,393h-6v-10h6V393z"/>
	<path class="st0" d="M-209,388h-6v-12h14v3h2c0.3,0,0.7,0.1,1,0.1V375c0-1.1-0.9-2-2-2h-19c-1.1,0-2,0.9-2,2v14c0,1.1,0.9,2,2,2h10
		V388z M-217,384h-2v-4h2V384z"/>
</g>
<g>
	<path class="st0" d="M-149,374v22h24v-22H-149z M-127,376v9.9l-5.1-4.3l-6,7l-4.9-3.9l-4,3.2V376H-127z"/>
	<circle class="st0" cx="-139" cy="381" r="3"/>
</g>
<g>
	<polygon class="st1" points="-243,406.6 -243,421 -236,421 -236,414 -230,414 -230,421 -223,421 -223,406.6 -233,397.7 	"/>
</g>
<path class="st1" d="M-173,399v16h24v-16H-173z M-164,412v-10l6.7,5L-164,412z"/>
<g>
	<path class="st1" d="M-199,405h-6c-1.1,0-2,0.9-2,2v12c0,1.1,0.9,2,2,2h6c1.1,0,2-0.9,2-2v-12C-197,405.9-197.9,405-199,405z
		 M-199,417h-6v-10h6V417z"/>
	<path class="st1" d="M-209,412h-6v-12h14v3h2c0.3,0,0.7,0.1,1,0.1V399c0-1.1-0.9-2-2-2h-19c-1.1,0-2,0.9-2,2v14c0,1.1,0.9,2,2,2h10
		V412z M-217,408h-2v-4h2V408z"/>
</g>
<g>
	<path class="st1" d="M-149,398v22h24v-22H-149z M-127,400v9.9l-5.1-4.3l-6,7l-4.9-3.9l-4,3.2V400H-127z"/>
	<circle class="st1" cx="-139" cy="405" r="3"/>
</g>
<g>
	<path class="st0" d="M-173,392v-18h-24v18h9v2h-4v2h4h6h4v-2h-4v-2H-173z M-194,389v-12h18v12H-194z"/>
</g>
<g>
	<path class="st1" d="M-173,416v-18h-24v18h9v2h-4v2h4h6h4v-2h-4v-2H-173z M-194,413v-12h18v12H-194z"/>
</g>
</svg>
